# xmcd
#
# Track frame offsets:
#	182
#	14832
#	28275
#	50080
#	67695
#	81690
#	93625
#	108800
#	120700
#	138197
#	150612
#	170770
#	190612
#	218225
#	253327
#	275552
#	290565
#
# Disc length: 4063 seconds
#
# Revision: 0
# Processed by: cddbd v1.5.2PL0 Copyright (c) Steve Scherf et al.
# Submitted via: EasyCDDAExtractor 16.0.6.1
#
DISCID=060fdd11
DTITLE=Συλλογικός δίσκος - Το μπουζούκι στην Αμερική
DYEAR=1996
DGENRE=Ποικίλη
TTITLE0=Τζουανάκος Σταύρος - Σταλαγματιά-σταλαγματιά [1961, Σ. Τζουανάκος-Ν. Γ
TTITLE0=κούμας]
TTITLE1=Στεργίου Δημήτρης ή Μπέμπης - Τα ζάρια [1960, Σ. Περιστέρης-Β. Περπινι
TTITLE1=άδης, μπ. Στεργίου]
TTITLE2=Άνευ ερμηνευτού - Μινόρε του τεκέ [1962, μπ. Σωτ. Καλυμνάκης]
TTITLE3=Άνευ ερμηνευτού - Σόλο μπουζούκι Ανέστου Αθανασίου [1960]
TTITLE4=Τσομίδης Ιορδάνης - Για μάς ποτέ μην ξημερώσει [1960, Σ. Καζαντζίδης-Ν
TTITLE4=Μουρκάκος]
TTITLE5=Άνευ ερμηνευτού - Clear blue waters [1959, Ι. Τσομίδης, μπ. ίδιος]
TTITLE6=Άνευ ερμηνευτού - Ανατολίτικη φαντασία [1961, Γ. Σταματίου, μπ. ίδιος]
TTITLE7=Χιώτης Μανώλης - Διάβασα πως παντρεύεσαι [1957, Μ. Χιώτης-Κ. Μάνεσης]
TTITLE8=Άνευ ερμηνευτού - Σόλο μπουζούκι Στέλιου Μακριδάκη [1963]
TTITLE9=Αθανασίου Ανέστος - Απολογήσου ένοχη [1960, Λευτ. Τσαγκάρης, μπ. Αν. Α
TTITLE9=θανασίου]
TTITLE10=Άνευ ερμηνευτού - Σόλο μινόρε [1959, μπ. Ανέστος Αθανασίου]
TTITLE11=Τσομίδης Ιορδάνης - Το πλουσιόπαιδο [1963, Μ. Χιώτης-Χρ. Κολοκοτρώνης
TTITLE11=, μπ. Τσομίδης]
TTITLE12=Άνευ ερμηνευτού - Σόλο μπουζούκι Δημήτρη Στεργίου Μπέμπη [1960]
TTITLE13=Άνευ ερμηνευτού - Για το χατίρι του Ζορμπά 1963, Ιορδ. Τσομίδης, μπ. 
TTITLE13=ίδιος]
TTITLE14=Στεργίου Δημήτρης ή Μπέμπης - Ο Χάρος [1960, Παν. Τούντας, μπ. Δ. Στε
TTITLE14=ργίου]
TTITLE15=Άνευ ερμηνευτού - Χασάπικος χορός [1964, Λ. Καρνέζης-Κ. Παπαδόπουλος,
TTITLE15=μπ. ίδιοι]
TTITLE16=Χιώτης Μανώλης-Λίντα Μαίρη - Αγαπάω μιά κοπέλα [1965, Μ. Χιώτης]
EXTD=
EXTT0=
EXTT1=
EXTT2=
EXTT3=
EXTT4=
EXTT5=
EXTT6=
EXTT7=
EXTT8=
EXTT9=
EXTT10=
EXTT11=
EXTT12=
EXTT13=
EXTT14=
EXTT15=
EXTT16=
PLAYORDER=
